<svg width="16" height="16" viewBox="0 0 16 16" fill="none" xmlns="http://www.w3.org/2000/svg">
<path d="M4.54052 0.140015C2.11953 0.140015 0.130005 2.12688 0.130005 4.55053V10.7295C0.130005 13.1505 2.11687 15.14 4.54052 15.14H10.7195C13.1405 15.14 15.13 13.1532 15.13 10.7295V4.55053C15.13 2.12954 13.1431 0.140015 10.7195 0.140015H4.54052ZM4.54052 1.50365H10.7195C12.4054 1.50365 13.7664 2.86462 13.7664 4.55053V10.7295C13.7664 12.4154 12.4054 13.7764 10.7195 13.7764H4.54052C2.85461 13.7764 1.49364 12.4154 1.49364 10.7295V4.55053C1.49364 2.86462 2.85461 1.50365 4.54052 1.50365ZM11.657 2.99513C11.3134 2.99513 11.0391 3.26945 11.0391 3.61303C11.0391 3.9566 11.3134 4.23092 11.657 4.23092C12.0006 4.23092 12.2749 3.9566 12.2749 3.61303C12.2749 3.26945 12.0006 2.99513 11.657 2.99513ZM7.63 3.54911C5.37947 3.54911 3.5391 5.38948 3.5391 7.64001C3.5391 9.89055 5.37947 11.7309 7.63 11.7309C9.88054 11.7309 11.7209 9.89055 11.7209 7.64001C11.7209 5.38948 9.88054 3.54911 7.63 3.54911ZM7.63 4.91274C9.14545 4.91274 10.3573 6.12457 10.3573 7.64001C10.3573 9.15546 9.14545 10.3673 7.63 10.3673C6.11456 10.3673 4.90273 9.15546 4.90273 7.64001C4.90273 6.12457 6.11456 4.91274 7.63 4.91274Z" fill="#252758"/>
</svg>
