<svg width="25" height="25" viewBox="0 0 25 25" fill="none" xmlns="http://www.w3.org/2000/svg">
<path d="M16.9967 17.4733L13.6367 15.6066C14.89 14.6199 15.2367 12.6999 15.2367 11.6066V9.36661C15.2367 7.87328 13.2633 6.21994 11.2633 6.21994C9.26334 6.21994 7.23667 7.87328 7.23667 9.36661V11.6066C7.23667 12.5933 7.66334 14.5933 8.91667 15.5799L5.47667 17.4466C5.47667 17.4466 4.57001 17.8466 4.57001 18.3533V19.7133C4.57001 20.2199 4.97001 20.6199 5.47667 20.6199H17.0233C17.53 20.6199 17.93 20.2199 17.93 19.7133V18.3533C17.9033 17.8466 16.9967 17.4733 16.9967 17.4733ZM16.8367 19.5533H5.63667V18.5933C5.71667 18.5399 5.82334 18.4599 5.90334 18.4333C5.93001 18.4333 5.95667 18.4066 5.98334 18.4066L9.42334 16.5399C9.74334 16.3799 9.95667 16.0599 9.98334 15.6866C10.01 15.3399 9.87667 14.9933 9.58334 14.7533C8.67667 14.0333 8.30334 12.4599 8.30334 11.6066V9.36661C8.30334 8.59328 9.74334 7.28661 11.2633 7.28661C12.81 7.28661 14.17 8.59328 14.17 9.36661V11.6066C14.17 12.4333 13.9033 14.0333 12.9967 14.7533C12.7033 14.9666 12.57 15.3133 12.5967 15.6866C12.6233 16.0333 12.8367 16.3533 13.1567 16.5399L16.5167 18.4066C16.5433 18.4333 16.5967 18.4333 16.6233 18.4599C16.7033 18.4866 16.81 18.5399 16.8633 18.5933V19.5533H16.8367ZM20.73 14.8066L17.3167 12.9399C18.57 11.9533 18.9433 10.0333 18.9433 8.93995V6.69994C18.9433 5.20661 16.9167 3.52661 14.9167 3.52661C13.6367 3.52661 12.3033 4.21994 11.53 5.12661C11.9567 5.15328 12.4633 5.15328 12.8633 5.28661C13.4233 4.85994 14.1433 4.59328 14.9167 4.59328C16.4633 4.59328 17.8767 5.89994 17.8767 6.69994V8.93995C17.8767 9.76661 17.5567 11.3666 16.65 12.0866C16.3567 12.2999 16.2233 12.6466 16.25 13.0199C16.2767 13.3666 16.49 13.6866 16.81 13.8733L20.2233 15.7399C20.25 15.7666 20.3033 15.7666 20.33 15.7933C20.41 15.8199 20.5167 15.8733 20.57 15.9266V16.8866H18.41C18.73 17.1266 18.8367 17.4733 18.97 17.9533H20.73C21.2367 17.9533 21.6367 17.5533 21.6367 17.0466V15.7133C21.6367 15.1799 20.73 14.8066 20.73 14.8066Z" fill="white"/>
</svg>
