<svg width="16" height="18" viewBox="0 0 16 18" fill="none" xmlns="http://www.w3.org/2000/svg">
<path d="M8.00876 0.216577C8.95094 0.202515 9.88657 0.210952 10.8213 0.202515C10.8784 1.27876 11.2741 2.37564 12.0803 3.13689C12.8847 3.91595 14.0228 4.27314 15.13 4.39408V7.22533C14.0922 7.19251 13.0497 6.98158 12.1084 6.5447C11.6988 6.36283 11.3163 6.12939 10.9422 5.89033C10.9375 7.94533 10.9516 9.99658 10.9291 12.0441C10.8736 13.0413 10.5362 14.0023 9.95595 14.8153C9.01563 16.1635 7.38251 17.0428 5.70438 17.07C4.67594 17.1272 3.64751 16.8535 2.77094 16.3481C1.31782 15.511 0.295944 13.9772 0.146882 12.3319C0.127876 11.9835 0.124749 11.6344 0.137507 11.2856C0.277163 9.92467 0.944145 8.67248 1.99563 7.7972C3.18719 6.78283 4.85594 6.30001 6.41876 6.58595C6.43282 7.62658 6.39063 8.6672 6.39063 9.7097C5.67626 9.48377 4.84282 9.54751 4.21844 9.97033C3.76376 10.2591 3.41782 10.7016 3.23782 11.2013C3.08782 11.5575 3.13094 11.9531 3.13938 12.3319C3.31094 13.486 4.44626 14.4553 5.65751 14.3513C6.46094 14.3419 7.23063 13.8872 7.64969 13.2197C7.78563 12.9853 7.93657 12.7472 7.94501 12.4725C8.01532 11.2144 7.9872 9.96189 7.99657 8.70377C8.00219 5.8697 7.9872 3.04314 8.0097 0.217514L8.00876 0.216577Z" fill="#252758"/>
</svg>
