<svg width="31" height="31" viewBox="0 0 31 31" fill="none" xmlns="http://www.w3.org/2000/svg">
<g clip-path="url(#clip0_1_114)">
<path fill-rule="evenodd" clip-rule="evenodd" d="M30.63 0.640015H0.630005V30.64H30.63V0.640015ZM16.4862 24.0775H13.4159V15.6441H11.88V13.009H13.4159V10.8938H13.4215C13.4751 9.06476 14.0929 7.32345 17.0994 7.21433V7.20251H19.021V9.83764H17.4532C16.8843 9.83764 16.4862 10.484 16.4862 11.0995V13.009H19.2451L18.7896 15.6441H16.4862V24.0775Z" fill="white"/>
<path d="M13.4159 24.0775H16.4862V15.6441H18.7896L19.2451 13.009H16.4862V11.0995C16.4862 10.484 16.8843 9.83764 17.4532 9.83764H19.021V7.20251H17.0994V7.21433C14.0929 7.32345 13.4751 9.06476 13.4215 10.8938H13.4159V13.009H11.88V15.6441H13.4159V24.0775Z" fill="#252758"/>
</g>
<defs>
<clipPath id="clip0_1_114">
<rect x="0.630005" y="0.640015" width="30" height="30" rx="15" fill="white"/>
</clipPath>
</defs>
</svg>
