<svg width="31" height="31" viewBox="0 0 31 31" fill="none" xmlns="http://www.w3.org/2000/svg">
<g clip-path="url(#clip0_1_105)">
<path d="M0.630005 0.640015H30.63V30.64H0.630005V0.640015ZM12.5405 8.14001C10.1195 8.14001 8.13 10.1269 8.13 12.5505V18.7295C8.13 21.1505 10.1169 23.14 12.5405 23.14H18.7195C21.1405 23.14 23.13 21.1532 23.13 18.7295V12.5505C23.13 10.1295 21.1431 8.14001 18.7195 8.14001H12.5405ZM12.5405 9.50365H18.7195C20.4054 9.50365 21.7664 10.8646 21.7664 12.5505V18.7295C21.7664 20.4154 20.4054 21.7764 18.7195 21.7764H12.5405C10.8546 21.7764 9.49364 20.4154 9.49364 18.7295V12.5505C9.49364 10.8646 10.8546 9.50365 12.5405 9.50365ZM19.657 10.9951C19.3134 10.9951 19.0391 11.2695 19.0391 11.613C19.0391 11.9566 19.3134 12.2309 19.657 12.2309C20.0006 12.2309 20.2749 11.9566 20.2749 11.613C20.2749 11.2695 20.0006 10.9951 19.657 10.9951ZM15.63 11.5491C13.3795 11.5491 11.5391 13.3895 11.5391 15.64C11.5391 17.8905 13.3795 19.7309 15.63 19.7309C17.8805 19.7309 19.7209 17.8905 19.7209 15.64C19.7209 13.3895 17.8805 11.5491 15.63 11.5491ZM15.63 12.9127C17.1455 12.9127 18.3573 14.1246 18.3573 15.64C18.3573 17.1555 17.1455 18.3673 15.63 18.3673C14.1146 18.3673 12.9027 17.1555 12.9027 15.64C12.9027 14.1246 14.1146 12.9127 15.63 12.9127Z" fill="white"/>
<path d="M12.5405 8.14001C10.1195 8.14001 8.13 10.1269 8.13 12.5505V18.7295C8.13 21.1505 10.1169 23.14 12.5405 23.14H18.7195C21.1405 23.14 23.13 21.1532 23.13 18.7295V12.5505C23.13 10.1295 21.1431 8.14001 18.7195 8.14001H12.5405ZM12.5405 9.50365H18.7195C20.4054 9.50365 21.7664 10.8646 21.7664 12.5505V18.7295C21.7664 20.4154 20.4054 21.7764 18.7195 21.7764H12.5405C10.8546 21.7764 9.49364 20.4154 9.49364 18.7295V12.5505C9.49364 10.8646 10.8546 9.50365 12.5405 9.50365ZM19.657 10.9951C19.3134 10.9951 19.0391 11.2695 19.0391 11.613C19.0391 11.9566 19.3134 12.2309 19.657 12.2309C20.0006 12.2309 20.2749 11.9566 20.2749 11.613C20.2749 11.2695 20.0006 10.9951 19.657 10.9951ZM15.63 11.5491C13.3795 11.5491 11.5391 13.3895 11.5391 15.64C11.5391 17.8905 13.3795 19.7309 15.63 19.7309C17.8805 19.7309 19.7209 17.8905 19.7209 15.64C19.7209 13.3895 17.8805 11.5491 15.63 11.5491ZM15.63 12.9127C17.1455 12.9127 18.3573 14.1246 18.3573 15.64C18.3573 17.1555 17.1455 18.3673 15.63 18.3673C14.1146 18.3673 12.9027 17.1555 12.9027 15.64C12.9027 14.1246 14.1146 12.9127 15.63 12.9127Z" fill="#252758"/>
</g>
<defs>
<clipPath id="clip0_1_105">
<rect x="0.630005" y="0.640015" width="30" height="30" rx="15" fill="white"/>
</clipPath>
</defs>
</svg>
