<svg width="31" height="31" viewBox="0 0 31 31" fill="none" xmlns="http://www.w3.org/2000/svg">
<g clip-path="url(#clip0_1_119)">
<g filter="url(#filter0_d_1_119)">
<path fill-rule="evenodd" clip-rule="evenodd" d="M30.63 0.640015H0.630005V30.64H30.63V0.640015ZM17.6237 7.20717C17.0868 7.20788 16.5488 7.20859 16.0091 7.21676C15.995 9.02931 15.9964 10.8428 15.9972 12.658C15.9978 13.6727 15.9983 14.688 15.9962 15.7042C15.9938 16.045 15.9941 16.3854 15.9945 16.7256C15.9954 17.6411 15.9965 18.5554 15.9449 19.4723C15.9374 19.7269 15.8068 19.9505 15.68 20.1678C15.6698 20.1851 15.6597 20.2024 15.6498 20.2196C15.2311 20.8867 14.4611 21.3425 13.6578 21.3509C12.446 21.4558 11.3108 20.486 11.1398 19.3321C11.1384 19.2755 11.1364 19.2186 11.1343 19.1615C11.1226 18.836 11.1107 18.5042 11.2373 18.2009C11.4176 17.7009 11.7635 17.259 12.2188 16.9705C12.8425 16.547 13.6766 16.4838 14.3904 16.7094C14.3904 16.2647 14.3982 15.82 14.406 15.3755C14.4164 14.779 14.4269 14.1826 14.4186 13.5859C12.856 13.3 11.1872 13.783 9.99588 14.7972C8.94485 15.6679 8.26772 16.9478 8.13824 18.2857C8.12367 18.629 8.1296 18.9803 8.14687 19.3321C8.29578 20.9775 9.31822 22.5106 10.7712 23.348C11.648 23.8533 12.6758 24.1275 13.7048 24.07C15.3821 24.0425 17.0153 23.1635 17.9563 21.815C18.5412 21.0049 18.873 20.0266 18.9292 19.0436C18.9437 17.6931 18.9428 16.3402 18.9419 14.9856C18.9414 14.2878 18.941 13.5894 18.9426 12.8907C19.3165 13.1297 19.6985 13.3633 20.1085 13.5447C21.0501 13.9814 22.0925 14.1923 23.13 14.2255V11.3941C22.0228 11.2733 20.885 10.9162 20.0805 10.1363C19.2744 9.37528 18.8784 8.27888 18.8217 7.20251C18.4227 7.20611 18.0234 7.20664 17.6237 7.20717Z" fill="white"/>
<path d="M16.0088 7.21658C16.9509 7.20251 17.8866 7.21095 18.8213 7.20251C18.8784 8.27876 19.2741 9.37564 20.0803 10.1369C20.8847 10.916 22.0228 11.2731 23.13 11.3941V14.2253C22.0922 14.1925 21.0497 13.9816 20.1084 13.5447C19.6988 13.3628 19.3163 13.1294 18.9422 12.8903C18.9375 14.9453 18.9516 16.9966 18.9291 19.0441C18.8736 20.0413 18.5362 21.0023 17.9559 21.8153C17.0156 23.1635 15.3825 24.0428 13.7044 24.07C12.6759 24.1272 11.6475 23.8535 10.7709 23.3481C9.31782 22.511 8.29594 20.9772 8.14688 19.3319C8.12788 18.9835 8.12475 18.6344 8.13751 18.2856C8.27716 16.9247 8.94414 15.6725 9.99563 14.7972C11.1872 13.7828 12.8559 13.3 14.4188 13.586C14.4328 14.6266 14.3906 15.6672 14.3906 16.7097C13.6763 16.4838 12.8428 16.5475 12.2184 16.9703C11.7638 17.2591 11.4178 17.7016 11.2378 18.2013C11.0878 18.5575 11.1309 18.9531 11.1394 19.3319C11.3109 20.486 12.4463 21.4553 13.6575 21.3513C14.4609 21.3419 15.2306 20.8872 15.6497 20.2197C15.7856 19.9853 15.9366 19.7472 15.945 19.4725C16.0153 18.2144 15.9872 16.9619 15.9966 15.7038C16.0022 12.8697 15.9872 10.0431 16.0097 7.21751L16.0088 7.21658Z" fill="#252758"/>
</g>
</g>
<defs>
<filter id="filter0_d_1_119" x="-3.37" y="0.640015" width="38" height="38" filterUnits="userSpaceOnUse" color-interpolation-filters="sRGB">
<feFlood flood-opacity="0" result="BackgroundImageFix"/>
<feColorMatrix in="SourceAlpha" type="matrix" values="0 0 0 0 0 0 0 0 0 0 0 0 0 0 0 0 0 0 127 0" result="hardAlpha"/>
<feOffset dy="4"/>
<feGaussianBlur stdDeviation="2"/>
<feComposite in2="hardAlpha" operator="out"/>
<feColorMatrix type="matrix" values="0 0 0 0 0 0 0 0 0 0 0 0 0 0 0 0 0 0 0.25 0"/>
<feBlend mode="normal" in2="BackgroundImageFix" result="effect1_dropShadow_1_119"/>
<feBlend mode="normal" in="SourceGraphic" in2="effect1_dropShadow_1_119" result="shape"/>
</filter>
<clipPath id="clip0_1_119">
<rect x="0.630005" y="0.640015" width="30" height="30" rx="15" fill="white"/>
</clipPath>
</defs>
</svg>
